<svg version="1.1" id="Layer_1" xmlns="http://www.w3.org/2000/svg" xmlns:xlink="http://www.w3.org/1999/xlink" x="0px" y="0px"
	 width="100%" viewBox="0 0 1200 1200" enable-background="new 0 0 1200 1200" xml:space="preserve">
<path fill="#47704C" opacity="1.000000" stroke="none" 
	d="
M639.000000,1201.000000 
	C426.000000,1201.000000 213.500000,1201.000000 1.000000,1201.000000 
	C1.000000,801.000000 1.000000,401.000000 1.000000,1.000000 
	C401.000000,1.000000 801.000000,1.000000 1201.000000,1.000000 
	C1201.000000,401.000000 1201.000000,801.000000 1201.000000,1201.000000 
	C1013.833313,1201.000000 826.666687,1201.000000 639.000000,1201.000000 
M917.500000,579.000000 
	C931.913635,579.000000 946.327209,579.000000 960.668823,579.000000 
	C960.668823,573.259460 960.668823,568.340271 960.668823,563.407410 
	C870.648987,563.407410 780.960876,563.407410 691.331177,563.407410 
	C691.331177,568.740479 691.331177,573.659607 691.331177,579.000000 
	C766.607666,579.000000 841.553833,579.000000 917.500000,579.000000 
M492.499084,563.000000 
	C408.769073,563.000000 325.039032,563.000000 241.312439,563.000000 
	C241.312439,568.701965 241.312439,573.621521 241.312439,578.611084 
	C331.313507,578.611084 421.001556,578.611084 510.687500,578.611084 
	C510.687500,573.297852 510.687500,568.378296 510.687500,563.000000 
	C504.755981,563.000000 499.127106,563.000000 492.499084,563.000000 
M552.000000,701.511597 
	C551.999390,698.179321 552.300781,694.813904 551.938782,691.521362 
	C551.027283,683.231079 549.469177,674.964355 540.830383,671.036682 
	C532.538330,667.266602 524.354675,668.282104 517.263733,674.044922 
	C514.355103,676.408691 512.302490,679.825745 509.609924,683.065063 
	C506.657043,673.329407 499.906067,668.933777 490.118805,669.015503 
	C480.182251,669.098450 473.831360,674.687988 469.369354,683.710815 
	C468.350433,676.507385 466.126251,671.283325 459.036102,669.447388 
	C454.583984,668.294434 450.494629,669.052551 447.627930,672.190552 
	C444.646942,675.453796 443.766113,679.693542 446.810547,683.804810 
	C452.317871,680.712891 454.392822,681.843018 454.973206,688.231812 
	C455.078308,689.388916 454.999451,690.563049 454.999542,691.729309 
	C455.000458,704.891602 455.050476,718.054138 454.969238,731.215942 
	C454.945221,735.108948 455.382233,739.218201 459.629974,739.991882 
	C463.585510,740.712341 467.875854,739.845032 471.967316,739.294434 
	C472.569672,739.213440 473.480804,736.889587 473.247223,735.822754 
	C470.313171,722.421753 470.298798,708.901917 472.239136,695.464783 
	C472.913086,690.797668 475.387909,686.244812 477.710480,682.007141 
	C479.605164,678.550232 483.512512,676.820007 487.116516,678.250916 
	C489.580750,679.229187 491.904663,682.066406 492.992767,684.624878 
	C494.356750,687.831848 494.850159,691.595642 494.916351,695.134155 
	C495.137482,706.959351 494.975189,718.791382 495.009277,730.620667 
	C495.032501,738.675293 497.837341,741.508911 505.828522,740.889648 
	C508.598541,740.674988 511.271729,739.210754 514.181274,738.254089 
	C510.106354,724.397888 510.656036,711.063782 512.178223,697.824402 
	C512.921997,691.355591 515.005432,684.916321 520.248474,680.280518 
	C525.204712,675.898315 531.587219,677.597351 533.355591,683.906494 
	C534.274658,687.185547 534.878296,690.660217 534.927856,694.056641 
	C535.110168,706.549866 534.677185,719.061646 535.233154,731.532776 
	C535.369141,734.582458 537.768799,739.172546 540.225830,740.079529 
	C543.619385,741.332153 548.102844,740.005127 552.005981,739.219177 
	C552.885986,739.041931 553.891663,736.513672 553.830994,735.111328 
	C553.360107,724.237366 552.641785,713.374146 552.000000,701.511597 
M288.409882,731.924255 
	C290.465454,733.563538 292.304260,735.650818 294.612579,736.767883 
	C307.631165,743.068298 321.406494,743.043213 334.547302,738.477112 
	C351.938446,732.434326 356.600586,713.549377 346.457489,700.585449 
	C341.765625,694.588806 334.364777,690.645569 327.992462,686.048096 
	C321.357635,681.261292 314.004120,677.362488 307.846619,672.052734 
	C301.732910,666.780762 302.790192,657.030640 309.239990,653.458618 
	C315.049835,650.241028 322.718048,649.112732 328.570740,654.489197 
	C332.300171,657.915222 333.986176,663.565613 337.023163,668.996033 
	C336.883789,668.996033 338.035675,669.046692 339.181915,668.987854 
	C346.943268,668.589722 350.243347,663.705811 347.725128,656.415222 
	C345.861237,651.018921 341.442017,648.019592 336.461151,647.198669 
	C328.222198,645.840759 319.716156,644.766296 311.446808,645.345215 
	C304.602539,645.824402 297.703674,648.452026 292.941193,654.267212 
	C285.119385,663.817932 286.836426,678.053589 295.660309,685.929626 
	C301.241241,690.911072 307.876984,694.715454 314.066315,699.009277 
	C319.853241,703.023926 326.232056,706.387207 331.342926,711.124084 
	C337.928955,717.228394 335.363068,729.677063 327.714600,732.994629 
	C315.162170,738.439209 298.412109,731.947693 298.853668,715.730103 
	C298.885986,714.544495 297.064819,712.456665 295.844604,712.237000 
	C290.733032,711.316895 285.068634,715.827698 285.180664,721.132568 
	C285.253082,724.561707 286.943268,727.956604 288.409882,731.924255 
M623.176819,739.644897 
	C626.403870,740.095886 629.634521,740.947327 632.857239,740.918274 
	C640.674377,740.847839 644.224548,734.019592 640.197083,727.229004 
	C634.515991,729.416260 632.074646,727.753418 632.020935,721.446289 
	C631.942993,712.286560 632.294983,703.113220 631.911255,693.968872 
	C631.566772,685.758240 629.859558,677.568237 621.691162,673.452209 
	C608.161377,666.634583 594.360291,667.124878 581.171509,674.448547 
	C574.385681,678.216614 572.679565,686.948730 576.842957,692.292908 
	C582.004700,698.918579 590.286255,699.807617 596.685181,694.328308 
	C592.404602,691.123230 591.167480,687.059631 592.530396,681.814575 
	C593.627380,677.592834 596.801819,676.623840 600.181519,676.081238 
	C604.845276,675.332581 609.517090,676.025452 611.771851,680.725037 
	C614.625000,686.671631 615.824829,693.073669 614.604614,699.497864 
	C609.441711,700.032349 604.611633,700.116821 599.971680,701.099182 
	C590.278992,703.151550 580.698914,706.177185 574.867737,714.858887 
	C569.041016,723.534058 570.567139,737.857849 583.471191,740.586243 
	C590.568848,742.086914 598.141907,741.955872 604.327576,737.038513 
	C608.438721,733.770142 612.073242,729.902100 614.944946,727.215637 
	C617.318848,730.939026 619.936401,735.044495 623.176819,739.644897 
M774.436035,735.038696 
	C777.195679,732.010376 779.955261,728.981995 782.715210,725.953979 
	C785.681763,738.923035 788.535828,741.432800 799.822021,740.997742 
	C807.617920,740.697205 811.195923,734.048889 807.228882,727.234985 
	C801.544434,729.395874 799.076172,727.729431 799.021606,721.476257 
	C798.941711,712.314880 799.281006,703.141052 798.915649,693.993591 
	C798.587097,685.767761 796.862732,677.587158 788.708008,673.464294 
	C775.182495,666.626221 761.374634,667.126648 748.181763,674.440979 
	C741.384460,678.209534 739.675781,686.937073 743.836487,692.286316 
	C748.986877,698.908020 757.274475,699.801819 763.690735,694.330627 
	C759.407776,691.127075 758.166260,687.063660 759.528931,681.816650 
	C760.625549,677.593994 763.800781,676.624268 767.180786,676.081360 
	C771.845337,675.332214 776.518494,676.025269 778.772644,680.726501 
	C781.624512,686.674255 782.827637,693.076599 781.603271,699.497498 
	C776.436279,700.032410 771.605286,700.118042 766.963867,701.099792 
	C757.444031,703.113464 748.182434,706.149780 742.157104,714.477783 
	C738.024780,720.189392 737.483704,726.708557 740.670471,733.161804 
	C743.775818,739.450256 749.370056,740.840393 755.921875,741.122559 
	C762.747681,741.416443 768.511292,739.323792 774.436035,735.038696 
M672.152283,740.996887 
	C678.583618,739.820984 679.569519,738.310913 677.888977,732.624207 
	C677.386597,730.924316 677.057434,729.108276 677.039001,727.341370 
	C676.951843,719.015381 676.639221,710.666504 677.132629,702.368958 
	C677.438538,697.223999 678.542236,691.988464 680.186462,687.095642 
	C682.282471,680.858154 687.652710,677.473511 692.865601,678.011414 
	C697.502930,678.489807 700.490723,682.055359 701.841125,688.908325 
	C702.094910,690.195740 701.993103,691.560364 701.994141,692.889343 
	C702.003723,705.213196 701.939758,717.537354 702.018066,729.860718 
	C702.086731,740.667725 709.373596,742.975525 718.245056,739.952942 
	C721.272461,738.921509 721.425049,737.086548 721.032288,734.353577 
	C720.170044,728.354004 719.329468,722.317749 719.080750,716.271851 
	C718.752380,708.291504 719.200195,700.281250 718.951477,692.295105 
	C718.594788,680.840149 713.695496,673.097839 705.342346,670.284729 
	C695.309814,666.906006 683.183533,669.594666 677.175720,679.497253 
	C676.586487,680.468506 675.722534,681.273010 674.342896,682.925049 
	C673.741821,675.152344 670.537537,670.482910 663.938416,669.170593 
	C659.581726,668.304138 654.991882,669.067749 652.529114,673.234802 
	C650.604675,676.490845 649.713318,680.394348 653.310547,683.581055 
	C657.820190,681.106140 659.925171,682.437317 659.965942,688.145020 
	C660.064697,701.966980 660.399414,715.806274 659.841675,729.606384 
	C659.534424,737.209045 663.217590,741.931946 672.152283,740.996887 
M598.458801,580.132751 
	C602.453979,582.040161 605.616943,580.362671 607.996643,577.367676 
	C610.012939,574.829956 611.672974,573.023438 615.424561,572.490356 
	C619.394836,571.926147 622.053650,568.414246 622.009277,563.759094 
	C621.960083,558.593079 622.314758,553.401855 621.917725,548.266113 
	C621.452026,542.243225 624.299500,537.828308 627.905151,533.641174 
	C629.423462,531.877930 631.215454,530.353516 632.822876,528.663269 
	C643.080688,517.877258 646.616150,504.563232 643.520813,490.645386 
	C638.481140,467.984467 617.216675,452.625732 593.179382,456.946350 
	C577.172180,459.823578 562.523315,472.851318 559.016296,488.730316 
	C555.557495,504.390564 558.599243,518.511841 570.501587,529.955200 
	C577.085449,536.285217 581.654541,543.254150 580.064270,552.984314 
	C579.639771,555.581482 579.999023,558.306946 580.000244,560.973511 
	C580.004333,569.817566 582.564636,572.612305 589.773621,573.101074 
	C592.982239,575.902771 595.335205,577.957397 598.458801,580.132751 
M432.121979,700.230225 
	C431.581573,685.418884 423.382965,671.353027 405.036591,669.263672 
	C389.717743,667.519165 375.367279,672.274963 369.216583,688.783813 
	C365.926727,697.613953 366.519348,706.836487 367.861115,716.092529 
	C371.707794,742.629089 402.870636,746.205566 418.044495,736.471863 
	C431.082947,728.107910 433.010559,715.017578 432.121979,700.230225 
M863.219299,671.009888 
	C853.480896,668.472351 844.043396,668.361145 834.202515,671.715210 
	C820.772400,676.292542 818.312683,693.030212 827.103271,701.178589 
	C832.859741,706.514465 840.555237,709.746155 847.335754,713.994568 
	C851.333496,716.499329 855.649963,718.704834 859.072266,721.859436 
	C862.451782,724.974548 861.633911,730.431885 857.728210,732.533936 
	C851.778015,735.736572 845.563354,735.973755 839.333740,732.743652 
	C834.204041,730.084045 832.720032,725.746887 833.001404,720.416016 
	C833.189026,716.860779 831.518921,715.806702 828.129333,716.387390 
	C823.992737,717.096069 820.886475,719.092834 820.136108,723.272095 
	C819.275208,728.066895 820.501038,732.432373 824.435425,735.769470 
	C833.164185,743.172913 858.901611,742.879333 867.490540,736.688660 
	C878.349121,728.862366 880.582947,715.990845 870.559998,707.303833 
	C866.551514,703.829590 861.396118,701.641663 856.662354,699.051880 
	C851.920715,696.457825 846.855591,694.408325 842.294861,691.543030 
	C837.257324,688.378052 836.153076,680.531006 839.933228,678.027954 
	C848.680786,672.235596 858.842285,676.301270 860.944092,686.453552 
	C861.166260,687.526611 861.208679,688.636963 861.347046,689.838684 
	C862.686218,689.903259 863.669983,689.980347 864.654663,689.993530 
	C872.309937,690.096313 876.074951,684.836914 872.364380,678.194946 
	C870.692993,675.203064 866.872742,673.411682 863.219299,671.009888 
M895.999878,693.512390 
	C896.000366,705.842346 895.783569,718.177368 896.066467,730.500854 
	C896.316895,741.409058 903.427124,742.675598 911.673828,739.921387 
	C913.032043,739.467773 914.499817,736.792542 914.461975,735.178223 
	C914.338989,729.946472 913.158264,724.736755 913.073975,719.507385 
	C912.853760,705.848083 912.995361,692.182739 913.000854,678.519836 
	C913.002747,673.757751 910.627075,670.982239 906.125000,669.525574 
	C901.540283,668.042358 898.078125,669.920349 894.926025,672.762207 
	C894.317139,673.311157 894.354614,674.818970 894.440308,675.855835 
	C894.899658,681.415100 895.468750,686.965393 895.999878,693.512390 
M895.080200,656.074524 
	C899.332520,661.373413 905.496338,662.741089 910.051270,659.396423 
	C914.020752,656.481628 915.165771,650.495728 912.584106,646.156921 
	C910.381531,642.455261 904.215088,640.759949 899.829956,642.650391 
	C894.879578,644.784546 893.037415,649.588257 895.080200,656.074524 
z"/>
<path fill="#FFCE63" opacity="1.000000" stroke="none" 
	d="
M917.000000,579.000000 
	C841.553833,579.000000 766.607666,579.000000 691.331177,579.000000 
	C691.331177,573.659607 691.331177,568.740479 691.331177,563.407410 
	C780.960876,563.407410 870.648987,563.407410 960.668823,563.407410 
	C960.668823,568.340271 960.668823,573.259460 960.668823,579.000000 
	C946.327209,579.000000 931.913635,579.000000 917.000000,579.000000 
z"/>
<path fill="#FFCE63" opacity="1.000000" stroke="none" 
	d="
M492.998657,563.000000 
	C499.127106,563.000000 504.755981,563.000000 510.687500,563.000000 
	C510.687500,568.378296 510.687500,573.297852 510.687500,578.611084 
	C421.001556,578.611084 331.313507,578.611084 241.312439,578.611084 
	C241.312439,573.621521 241.312439,568.701965 241.312439,563.000000 
	C325.039032,563.000000 408.769073,563.000000 492.998657,563.000000 
z"/>
<path fill="#FFCE63" opacity="1.000000" stroke="none" 
	d="
M552.000000,702.009583 
	C552.641785,713.374146 553.360107,724.237366 553.830994,735.111328 
	C553.891663,736.513672 552.885986,739.041931 552.005981,739.219177 
	C548.102844,740.005127 543.619385,741.332153 540.225830,740.079529 
	C537.768799,739.172546 535.369141,734.582458 535.233154,731.532776 
	C534.677185,719.061646 535.110168,706.549866 534.927856,694.056641 
	C534.878296,690.660217 534.274658,687.185547 533.355591,683.906494 
	C531.587219,677.597351 525.204712,675.898315 520.248474,680.280518 
	C515.005432,684.916321 512.921997,691.355591 512.178223,697.824402 
	C510.656036,711.063782 510.106354,724.397888 514.181274,738.254089 
	C511.271729,739.210754 508.598541,740.674988 505.828522,740.889648 
	C497.837341,741.508911 495.032501,738.675293 495.009277,730.620667 
	C494.975189,718.791382 495.137482,706.959351 494.916351,695.134155 
	C494.850159,691.595642 494.356750,687.831848 492.992767,684.624878 
	C491.904663,682.066406 489.580750,679.229187 487.116516,678.250916 
	C483.512512,676.820007 479.605164,678.550232 477.710480,682.007141 
	C475.387909,686.244812 472.913086,690.797668 472.239136,695.464783 
	C470.298798,708.901917 470.313171,722.421753 473.247223,735.822754 
	C473.480804,736.889587 472.569672,739.213440 471.967316,739.294434 
	C467.875854,739.845032 463.585510,740.712341 459.629974,739.991882 
	C455.382233,739.218201 454.945221,735.108948 454.969238,731.215942 
	C455.050476,718.054138 455.000458,704.891602 454.999542,691.729309 
	C454.999451,690.563049 455.078308,689.388916 454.973206,688.231812 
	C454.392822,681.843018 452.317871,680.712891 446.810547,683.804810 
	C443.766113,679.693542 444.646942,675.453796 447.627930,672.190552 
	C450.494629,669.052551 454.583984,668.294434 459.036102,669.447388 
	C466.126251,671.283325 468.350433,676.507385 469.369354,683.710815 
	C473.831360,674.687988 480.182251,669.098450 490.118805,669.015503 
	C499.906067,668.933777 506.657043,673.329407 509.609924,683.065063 
	C512.302490,679.825745 514.355103,676.408691 517.263733,674.044922 
	C524.354675,668.282104 532.538330,667.266602 540.830383,671.036682 
	C549.469177,674.964355 551.027283,683.231079 551.938782,691.521362 
	C552.300781,694.813904 551.999390,698.179321 552.000000,702.009583 
z"/>
<path fill="#FFCE63" opacity="1.000000" stroke="none" 
	d="
M288.159180,731.645569 
	C286.943268,727.956604 285.253082,724.561707 285.180664,721.132568 
	C285.068634,715.827698 290.733032,711.316895 295.844604,712.237000 
	C297.064819,712.456665 298.885986,714.544495 298.853668,715.730103 
	C298.412109,731.947693 315.162170,738.439209 327.714600,732.994629 
	C335.363068,729.677063 337.928955,717.228394 331.342926,711.124084 
	C326.232056,706.387207 319.853241,703.023926 314.066315,699.009277 
	C307.876984,694.715454 301.241241,690.911072 295.660309,685.929626 
	C286.836426,678.053589 285.119385,663.817932 292.941193,654.267212 
	C297.703674,648.452026 304.602539,645.824402 311.446808,645.345215 
	C319.716156,644.766296 328.222198,645.840759 336.461151,647.198669 
	C341.442017,648.019592 345.861237,651.018921 347.725128,656.415222 
	C350.243347,663.705811 346.943268,668.589722 339.181915,668.987854 
	C338.035675,669.046692 336.883789,668.996033 337.023163,668.996033 
	C333.986176,663.565613 332.300171,657.915222 328.570740,654.489197 
	C322.718048,649.112732 315.049835,650.241028 309.239990,653.458618 
	C302.790192,657.030640 301.732910,666.780762 307.846619,672.052734 
	C314.004120,677.362488 321.357635,681.261292 327.992462,686.048096 
	C334.364777,690.645569 341.765625,694.588806 346.457489,700.585449 
	C356.600586,713.549377 351.938446,732.434326 334.547302,738.477112 
	C321.406494,743.043213 307.631165,743.068298 294.612579,736.767883 
	C292.304260,735.650818 290.465454,733.563538 288.159180,731.645569 
z"/>
<path fill="#FFCE63" opacity="1.000000" stroke="none" 
	d="
M622.865356,739.397461 
	C619.936401,735.044495 617.318848,730.939026 614.944946,727.215637 
	C612.073242,729.902100 608.438721,733.770142 604.327576,737.038513 
	C598.141907,741.955872 590.568848,742.086914 583.471191,740.586243 
	C570.567139,737.857849 569.041016,723.534058 574.867737,714.858887 
	C580.698914,706.177185 590.278992,703.151550 599.971680,701.099182 
	C604.611633,700.116821 609.441711,700.032349 614.604614,699.497864 
	C615.824829,693.073669 614.625000,686.671631 611.771851,680.725037 
	C609.517090,676.025452 604.845276,675.332581 600.181519,676.081238 
	C596.801819,676.623840 593.627380,677.592834 592.530396,681.814575 
	C591.167480,687.059631 592.404602,691.123230 596.685181,694.328308 
	C590.286255,699.807617 582.004700,698.918579 576.842957,692.292908 
	C572.679565,686.948730 574.385681,678.216614 581.171509,674.448547 
	C594.360291,667.124878 608.161377,666.634583 621.691162,673.452209 
	C629.859558,677.568237 631.566772,685.758240 631.911255,693.968872 
	C632.294983,703.113220 631.942993,712.286560 632.020935,721.446289 
	C632.074646,727.753418 634.515991,729.416260 640.197083,727.229004 
	C644.224548,734.019592 640.674377,740.847839 632.857239,740.918274 
	C629.634521,740.947327 626.403870,740.095886 622.865356,739.397461 
M614.168518,713.451721 
	C614.487671,711.110962 614.806824,708.770142 615.373901,704.610779 
	C608.190186,706.968506 602.231018,708.462402 596.672546,710.878174 
	C591.076599,713.310364 589.017883,719.943787 590.864807,725.859192 
	C592.246521,730.284607 595.184937,731.155518 599.100281,730.024231 
	C607.124390,727.705750 611.453064,721.793945 614.168518,713.451721 
z"/>
<path fill="#FFCE63" opacity="1.000000" stroke="none" 
	d="
M774.173767,735.291992 
	C768.511292,739.323792 762.747681,741.416443 755.921875,741.122559 
	C749.370056,740.840393 743.775818,739.450256 740.670471,733.161804 
	C737.483704,726.708557 738.024780,720.189392 742.157104,714.477783 
	C748.182434,706.149780 757.444031,703.113464 766.963867,701.099792 
	C771.605286,700.118042 776.436279,700.032410 781.603271,699.497498 
	C782.827637,693.076599 781.624512,686.674255 778.772644,680.726501 
	C776.518494,676.025269 771.845337,675.332214 767.180786,676.081360 
	C763.800781,676.624268 760.625549,677.593994 759.528931,681.816650 
	C758.166260,687.063660 759.407776,691.127075 763.690735,694.330627 
	C757.274475,699.801819 748.986877,698.908020 743.836487,692.286316 
	C739.675781,686.937073 741.384460,678.209534 748.181763,674.440979 
	C761.374634,667.126648 775.182495,666.626221 788.708008,673.464294 
	C796.862732,677.587158 798.587097,685.767761 798.915649,693.993591 
	C799.281006,703.141052 798.941711,712.314880 799.021606,721.476257 
	C799.076172,727.729431 801.544434,729.395874 807.228882,727.234985 
	C811.195923,734.048889 807.617920,740.697205 799.822021,740.997742 
	C788.535828,741.432800 785.681763,738.923035 782.715088,725.953857 
	C779.955261,728.981995 777.195679,732.010376 774.173767,735.291992 
M779.507202,706.016724 
	C774.364929,707.490723 769.023499,708.493103 764.131226,710.559082 
	C758.100281,713.105896 755.770020,720.109985 757.956299,726.272461 
	C759.303284,730.068970 761.964050,731.093628 765.548523,730.167908 
	C773.892822,728.013062 781.475464,719.025330 781.903809,710.580688 
	C781.978943,709.099731 780.914062,707.560852 779.507202,706.016724 
z"/>
<path fill="#FFCE63" opacity="1.000000" stroke="none" 
	d="
M671.724609,740.998047 
	C663.217590,741.931946 659.534424,737.209045 659.841675,729.606384 
	C660.399414,715.806274 660.064697,701.966980 659.965942,688.145020 
	C659.925171,682.437317 657.820190,681.106140 653.310547,683.581055 
	C649.713318,680.394348 650.604675,676.490845 652.529114,673.234802 
	C654.991882,669.067749 659.581726,668.304138 663.938416,669.170593 
	C670.537537,670.482910 673.741821,675.152344 674.342896,682.925049 
	C675.722534,681.273010 676.586487,680.468506 677.175720,679.497253 
	C683.183533,669.594666 695.309814,666.906006 705.342346,670.284729 
	C713.695496,673.097839 718.594788,680.840149 718.951477,692.295105 
	C719.200195,700.281250 718.752380,708.291504 719.080750,716.271851 
	C719.329468,722.317749 720.170044,728.354004 721.032288,734.353577 
	C721.425049,737.086548 721.272461,738.921509 718.245056,739.952942 
	C709.373596,742.975525 702.086731,740.667725 702.018066,729.860718 
	C701.939758,717.537354 702.003723,705.213196 701.994141,692.889343 
	C701.993103,691.560364 702.094910,690.195740 701.841125,688.908325 
	C700.490723,682.055359 697.502930,678.489807 692.865601,678.011414 
	C687.652710,677.473511 682.282471,680.858154 680.186462,687.095642 
	C678.542236,691.988464 677.438538,697.223999 677.132629,702.368958 
	C676.639221,710.666504 676.951843,719.015381 677.039001,727.341370 
	C677.057434,729.108276 677.386597,730.924316 677.888977,732.624207 
	C679.569519,738.310913 678.583618,739.820984 671.724609,740.998047 
z"/>
<path fill="#FFCE63" opacity="1.000000" stroke="none" 
	d="
M598.073486,580.072388 
	C595.335205,577.957397 592.982239,575.902771 589.773621,573.101074 
	C582.564636,572.612305 580.004333,569.817566 580.000244,560.973511 
	C579.999023,558.306946 579.639771,555.581482 580.064270,552.984314 
	C581.654541,543.254150 577.085449,536.285217 570.501587,529.955200 
	C558.599243,518.511841 555.557495,504.390564 559.016296,488.730316 
	C562.523315,472.851318 577.172180,459.823578 593.179382,456.946350 
	C617.216675,452.625732 638.481140,467.984467 643.520813,490.645386 
	C646.616150,504.563232 643.080688,517.877258 632.822876,528.663269 
	C631.215454,530.353516 629.423462,531.877930 627.905151,533.641174 
	C624.299500,537.828308 621.452026,542.243225 621.917725,548.266113 
	C622.314758,553.401855 621.960083,558.593079 622.009277,563.759094 
	C622.053650,568.414246 619.394836,571.926147 615.424561,572.490356 
	C611.672974,573.023438 610.012939,574.829956 607.996643,577.367676 
	C605.616943,580.362671 602.453979,582.040161 598.073486,580.072388 
M589.476318,506.903748 
	C587.336548,503.126129 586.806335,498.999023 589.930725,495.895996 
	C592.612549,493.232544 596.364685,492.962769 599.951721,495.241028 
	C600.560730,495.627808 601.925110,495.045624 602.848328,494.679108 
	C606.816956,493.103546 610.312256,493.732697 612.951111,497.112976 
	C615.203735,499.998566 614.205811,505.348724 611.336670,507.901581 
	C610.437988,508.701233 609.144409,509.778198 609.131714,510.742676 
	C608.978882,522.342468 609.032837,533.945068 609.032837,545.644226 
	C612.326538,545.644226 615.047058,545.644226 616.479919,545.644226 
	C618.583130,541.054810 619.924438,536.995361 622.178528,533.529663 
	C624.402893,530.109802 627.522278,527.264709 630.298279,524.212158 
	C645.163208,507.866241 642.273193,485.544800 627.808289,471.484680 
	C614.204590,458.261658 593.274109,457.399445 578.097168,468.218201 
	C560.075745,481.064606 556.636047,507.266541 571.163147,523.776306 
	C575.689880,528.920898 581.308228,534.158752 583.143982,540.330383 
	C585.105347,546.924316 588.099854,546.205688 592.981995,545.674927 
	C592.981995,533.914307 593.067505,522.456726 592.854126,511.004700 
	C592.832031,509.814331 591.035522,508.657013 589.476318,506.903748 
M607.717468,504.682709 
	C609.669983,503.049133 611.179260,501.403290 608.542358,499.040161 
	C606.057190,496.813049 604.599609,498.617493 603.319702,500.388245 
	C601.532166,502.861298 600.283997,502.623138 598.507812,500.258972 
	C597.703918,499.188995 595.760193,498.285217 594.504761,498.469849 
	C593.554504,498.609589 591.955444,501.064209 592.261414,501.663208 
	C592.966736,503.044281 594.614136,503.979523 595.968872,504.973633 
	C596.420593,505.305054 597.144592,505.265442 598.207275,505.495911 
	C598.207275,519.008667 598.207275,532.386536 598.207275,546.020264 
	C600.333313,545.918457 601.930664,545.841919 603.999817,545.742859 
	C603.999817,543.659851 603.999695,541.869751 603.999817,540.079712 
	C604.000366,529.617859 604.016663,519.156006 603.988342,508.694244 
	C603.982666,506.603149 603.860352,504.554108 607.717468,504.682709 
M586.821167,560.966309 
	C588.436157,561.059509 590.051147,561.152710 592.003967,561.265381 
	C591.867371,563.040466 591.760254,564.432312 591.664734,565.673645 
	C589.547363,565.983398 587.870972,566.228699 585.722290,566.543030 
	C590.765503,570.196167 611.819519,569.870544 616.193176,565.963867 
	C608.856934,565.963867 602.123657,565.963867 595.008057,565.963867 
	C595.155029,564.017578 595.258423,562.648071 595.382874,560.999878 
	C598.428162,560.999878 601.077087,560.999878 603.725952,560.999878 
	C606.391724,560.999878 609.065491,561.126953 611.720703,560.959595 
	C613.839417,560.826050 615.935547,560.333740 618.041687,560.000671 
	C617.923218,559.340820 617.804749,558.680969 617.686279,558.021118 
	C610.264099,558.021118 602.841919,558.021118 595.419678,558.021118 
	C595.166931,557.457947 594.914124,556.894775 594.661377,556.331543 
	C595.830322,555.556335 596.971924,554.164978 598.173035,554.111572 
	C603.660461,553.867676 609.166626,554.078125 614.660950,553.932251 
	C615.825745,553.901306 616.969116,553.062378 618.122375,552.595703 
	C617.984619,552.286865 617.846863,551.977966 617.709167,551.669067 
	C606.839722,551.669067 595.970337,551.669067 585.089966,551.669067 
	C585.249817,556.432373 593.406311,550.964966 591.525452,557.829285 
	C589.933594,557.899475 588.365173,557.693542 587.025635,558.153687 
	C586.433472,558.357117 586.305115,559.910522 586.821167,560.966309 
z"/>
<path fill="#FFCE63" opacity="1.000000" stroke="none" 
	d="
M432.323730,700.630432 
	C433.010559,715.017578 431.082947,728.107910 418.044495,736.471863 
	C402.870636,746.205566 371.707794,742.629089 367.861115,716.092529 
	C366.519348,706.836487 365.926727,697.613953 369.216583,688.783813 
	C375.367279,672.274963 389.717743,667.519165 405.036591,669.263672 
	C423.382965,671.353027 431.581573,685.418884 432.323730,700.630432 
M396.167450,676.054382 
	C391.330688,677.653076 388.449127,681.403198 387.186646,685.900391 
	C383.553558,698.842346 383.759644,712.002869 387.274841,724.886780 
	C388.160858,728.134216 391.158875,731.576538 394.130188,733.330078 
	C401.226868,737.518311 409.752472,733.134705 411.949493,724.583130 
	C415.157776,712.095337 415.386017,699.477600 411.983215,687.034119 
	C409.570312,678.210510 406.036682,675.980530 396.167450,676.054382 
z"/>
<path fill="#FFCE63" opacity="1.000000" stroke="none" 
	d="
M863.623352,671.042725 
	C866.872742,673.411682 870.692993,675.203064 872.364380,678.194946 
	C876.074951,684.836914 872.309937,690.096313 864.654663,689.993530 
	C863.669983,689.980347 862.686218,689.903259 861.347046,689.838684 
	C861.208679,688.636963 861.166260,687.526611 860.944092,686.453552 
	C858.842285,676.301270 848.680786,672.235596 839.933228,678.027954 
	C836.153076,680.531006 837.257324,688.378052 842.294861,691.543030 
	C846.855591,694.408325 851.920715,696.457825 856.662354,699.051880 
	C861.396118,701.641663 866.551514,703.829590 870.559998,707.303833 
	C880.582947,715.990845 878.349121,728.862366 867.490540,736.688660 
	C858.901611,742.879333 833.164185,743.172913 824.435425,735.769470 
	C820.501038,732.432373 819.275208,728.066895 820.136108,723.272095 
	C820.886475,719.092834 823.992737,717.096069 828.129333,716.387390 
	C831.518921,715.806702 833.189026,716.860779 833.001404,720.416016 
	C832.720032,725.746887 834.204041,730.084045 839.333740,732.743652 
	C845.563354,735.973755 851.778015,735.736572 857.728210,732.533936 
	C861.633911,730.431885 862.451782,724.974548 859.072266,721.859436 
	C855.649963,718.704834 851.333496,716.499329 847.335754,713.994568 
	C840.555237,709.746155 832.859741,706.514465 827.103271,701.178589 
	C818.312683,693.030212 820.772400,676.292542 834.202515,671.715210 
	C844.043396,668.361145 853.480896,668.472351 863.623352,671.042725 
z"/>
<path fill="#FFCE63" opacity="1.000000" stroke="none" 
	d="
M895.999878,693.015564 
	C895.468750,686.965393 894.899658,681.415100 894.440308,675.855835 
	C894.354614,674.818970 894.317139,673.311157 894.926025,672.762207 
	C898.078125,669.920349 901.540283,668.042358 906.125000,669.525574 
	C910.627075,670.982239 913.002747,673.757751 913.000854,678.519836 
	C912.995361,692.182739 912.853760,705.848083 913.073975,719.507385 
	C913.158264,724.736755 914.338989,729.946472 914.461975,735.178223 
	C914.499817,736.792542 913.032043,739.467773 911.673828,739.921387 
	C903.427124,742.675598 896.316895,741.409058 896.066467,730.500854 
	C895.783569,718.177368 896.000366,705.842346 895.999878,693.015564 
z"/>
<path fill="#FFCE63" opacity="1.000000" stroke="none" 
	d="
M895.033081,655.678223 
	C893.037415,649.588257 894.879578,644.784546 899.829956,642.650391 
	C904.215088,640.759949 910.381531,642.455261 912.584106,646.156921 
	C915.165771,650.495728 914.020752,656.481628 910.051270,659.396423 
	C905.496338,662.741089 899.332520,661.373413 895.033081,655.678223 
z"/>
<path fill="#47704C" opacity="1.000000" stroke="none" 
	d="
M614.094116,713.856018 
	C611.453064,721.793945 607.124390,727.705750 599.100281,730.024231 
	C595.184937,731.155518 592.246521,730.284607 590.864807,725.859192 
	C589.017883,719.943787 591.076599,713.310364 596.672546,710.878174 
	C602.231018,708.462402 608.190186,706.968506 615.373901,704.610779 
	C614.806824,708.770142 614.487671,711.110962 614.094116,713.856018 
z"/>
<path fill="#47704C" opacity="1.000000" stroke="none" 
	d="
M779.941406,706.032715 
	C780.914062,707.560852 781.978943,709.099731 781.903809,710.580688 
	C781.475464,719.025330 773.892822,728.013062 765.548523,730.167908 
	C761.964050,731.093628 759.303284,730.068970 757.956299,726.272461 
	C755.770020,720.109985 758.100281,713.105896 764.131226,710.559082 
	C769.023499,708.493103 774.364929,707.490723 779.941406,706.032715 
z"/>
<path fill="#47704C" opacity="1.000000" stroke="none" 
	d="
M589.769287,507.194061 
	C591.035522,508.657013 592.832031,509.814331 592.854126,511.004700 
	C593.067505,522.456726 592.981995,533.914307 592.981995,545.674927 
	C588.099854,546.205688 585.105347,546.924316 583.143982,540.330383 
	C581.308228,534.158752 575.689880,528.920898 571.163147,523.776306 
	C556.636047,507.266541 560.075745,481.064606 578.097168,468.218201 
	C593.274109,457.399445 614.204590,458.261658 627.808289,471.484680 
	C642.273193,485.544800 645.163208,507.866241 630.298279,524.212158 
	C627.522278,527.264709 624.402893,530.109802 622.178528,533.529663 
	C619.924438,536.995361 618.583130,541.054810 616.479919,545.644226 
	C615.047058,545.644226 612.326538,545.644226 609.032837,545.644226 
	C609.032837,533.945068 608.978882,522.342468 609.131714,510.742676 
	C609.144409,509.778198 610.437988,508.701233 611.336670,507.901581 
	C614.205811,505.348724 615.203735,499.998566 612.951111,497.112976 
	C610.312256,493.732697 606.816956,493.103546 602.848328,494.679108 
	C601.925110,495.045624 600.560730,495.627808 599.951721,495.241028 
	C596.364685,492.962769 592.612549,493.232544 589.930725,495.895996 
	C586.806335,498.999023 587.336548,503.126129 589.769287,507.194061 
z"/>
<path fill="#47704C" opacity="1.000000" stroke="none" 
	d="
M607.324829,504.807068 
	C603.860352,504.554108 603.982666,506.603149 603.988342,508.694244 
	C604.016663,519.156006 604.000366,529.617859 603.999817,540.079712 
	C603.999695,541.869751 603.999817,543.659851 603.999817,545.742859 
	C601.930664,545.841919 600.333313,545.918457 598.207275,546.020264 
	C598.207275,532.386536 598.207275,519.008667 598.207275,505.495911 
	C597.144592,505.265442 596.420593,505.305054 595.968872,504.973633 
	C594.614136,503.979523 592.966736,503.044281 592.261414,501.663208 
	C591.955444,501.064209 593.554504,498.609589 594.504761,498.469849 
	C595.760193,498.285217 597.703918,499.188995 598.507812,500.258972 
	C600.283997,502.623138 601.532166,502.861298 603.319702,500.388245 
	C604.599609,498.617493 606.057190,496.813049 608.542358,499.040161 
	C611.179260,501.403290 609.669983,503.049133 607.324829,504.807068 
z"/>
<path fill="#47704C" opacity="1.000000" stroke="none" 
	d="
M586.393677,560.908691 
	C586.305115,559.910522 586.433472,558.357117 587.025635,558.153687 
	C588.365173,557.693542 589.933594,557.899475 591.525452,557.829285 
	C593.406311,550.964966 585.249817,556.432373 585.089966,551.669067 
	C595.970337,551.669067 606.839722,551.669067 617.709167,551.669067 
	C617.846863,551.977966 617.984619,552.286865 618.122375,552.595703 
	C616.969116,553.062378 615.825745,553.901306 614.660950,553.932251 
	C609.166626,554.078125 603.660461,553.867676 598.173035,554.111572 
	C596.971924,554.164978 595.830322,555.556335 594.661377,556.331543 
	C594.914124,556.894775 595.166931,557.457947 595.419678,558.021118 
	C602.841919,558.021118 610.264099,558.021118 617.686279,558.021118 
	C617.804749,558.680969 617.923218,559.340820 618.041687,560.000671 
	C615.935547,560.333740 613.839417,560.826050 611.720703,560.959595 
	C609.065491,561.126953 606.391724,560.999878 603.725952,560.999878 
	C601.077087,560.999878 598.428162,560.999878 595.382874,560.999878 
	C595.258423,562.648071 595.155029,564.017578 595.008057,565.963867 
	C602.123657,565.963867 608.856934,565.963867 616.193176,565.963867 
	C611.819519,569.870544 590.765503,570.196167 585.722290,566.543030 
	C587.870972,566.228699 589.547363,565.983398 591.664734,565.673645 
	C591.760254,564.432312 591.867371,563.040466 592.003967,561.265381 
	C590.051147,561.152710 588.436157,561.059509 586.393677,560.908691 
z"/>
<path fill="#47704C" opacity="1.000000" stroke="none" 
	d="
M396.581726,676.033508 
	C406.036682,675.980530 409.570312,678.210510 411.983215,687.034119 
	C415.386017,699.477600 415.157776,712.095337 411.949493,724.583130 
	C409.752472,733.134705 401.226868,737.518311 394.130188,733.330078 
	C391.158875,731.576538 388.160858,728.134216 387.274841,724.886780 
	C383.759644,712.002869 383.553558,698.842346 387.186646,685.900391 
	C388.449127,681.403198 391.330688,677.653076 396.581726,676.033508 
z"/>
</svg>