<svg version="1.1" id="Layer_1" xmlns="http://www.w3.org/2000/svg" xmlns:xlink="http://www.w3.org/1999/xlink" x="0px" y="0px"
	 width="100%" viewBox="0 0 1200 1200" enable-background="new 0 0 1200 1200" xml:space="preserve">
<path fill="#10316B" opacity="1.000000" stroke="none" 
	d="
M639.000000,1201.000000 
	C426.000000,1201.000000 213.500000,1201.000000 1.000000,1201.000000 
	C1.000000,801.000000 1.000000,401.000000 1.000000,1.000000 
	C401.000000,1.000000 801.000000,1.000000 1201.000000,1.000000 
	C1201.000000,401.000000 1201.000000,801.000000 1201.000000,1201.000000 
	C1013.833313,1201.000000 826.666687,1201.000000 639.000000,1201.000000 
M265.500275,563.413391 
	C257.406281,563.413391 249.312302,563.413391 241.189011,563.413391 
	C241.189011,568.796082 241.189011,573.413452 241.189011,578.299194 
	C331.145233,578.299194 420.882080,578.299194 510.704895,578.299194 
	C510.704895,573.282349 510.704895,568.557922 510.704895,563.413452 
	C429.086914,563.413452 347.793610,563.413452 265.500275,563.413391 
M870.500244,563.413391 
	C810.748413,563.413391 750.996643,563.413391 691.179321,563.413391 
	C691.179321,568.776184 691.179321,573.397278 691.179321,578.301575 
	C781.125610,578.301575 870.862488,578.301575 960.714661,578.301575 
	C960.714661,573.295593 960.714661,568.571228 960.714661,563.413452 
	C930.767578,563.413452 901.133972,563.413452 870.500244,563.413391 
M534.856567,687.300598 
	C535.173462,701.768677 535.472412,716.237244 535.813965,730.704712 
	C536.017639,739.334839 541.792236,743.089783 549.885681,740.045166 
	C553.022583,738.865112 554.333374,737.405823 553.172607,733.726257 
	C552.144592,730.467590 551.986450,726.856323 551.910522,723.390564 
	C551.718506,714.618347 552.366638,705.787354 551.568298,697.081665 
	C550.945190,690.286499 550.122803,682.784241 546.799194,677.114258 
	C540.010620,665.533203 520.764771,667.234497 512.983093,679.304504 
	C511.968811,680.877625 511.049713,682.512024 509.557617,685.000061 
	C506.762848,674.101685 500.135651,669.400940 490.064575,669.467896 
	C479.890900,669.535522 473.749298,675.530701 469.403168,684.568848 
	C465.959595,671.679321 460.258026,667.262817 451.607300,670.184387 
	C446.189117,672.014160 444.365204,677.068359 446.954041,683.078613 
	C452.883728,680.450073 454.954163,681.755188 455.097961,688.481262 
	C455.229645,694.640869 455.130310,700.805481 455.132812,706.967896 
	C455.136169,715.128906 455.089508,723.290466 455.164490,731.450806 
	C455.200623,735.378479 456.477600,739.356201 460.561096,740.003357 
	C464.198639,740.579895 468.155914,739.363831 471.918762,738.655579 
	C472.419312,738.561401 472.937897,736.781189 472.886841,735.811279 
	C472.328888,725.215454 470.927856,714.600830 471.283203,704.042725 
	C471.510651,697.285217 473.822205,690.445679 476.154266,683.987732 
	C477.056732,681.488647 480.292725,679.048035 482.990845,678.138123 
	C489.408539,675.973816 494.287201,680.281921 494.814728,688.977966 
	C495.459045,699.599060 495.261658,710.270691 495.451141,720.920044 
	C495.531067,725.410461 495.506531,729.911621 495.830048,734.386108 
	C496.115204,738.330261 499.045013,740.660828 502.474091,740.619446 
	C505.886597,740.578186 509.296387,738.929199 512.649902,737.812622 
	C512.942200,737.715271 512.899048,736.327759 512.855835,735.548218 
	C512.287354,725.283081 510.907898,714.983765 511.374023,704.767944 
	C511.689819,697.847229 514.073242,690.853149 516.517029,684.256836 
	C518.122925,679.921997 522.147217,677.169495 527.271118,677.651855 
	C532.463318,678.140808 533.619629,682.335266 534.856567,687.300598 
M289.242096,732.222473 
	C292.411835,734.296448 295.331299,737.066650 298.798492,738.313110 
	C308.909637,741.947815 319.417572,741.976929 329.794373,739.552979 
	C340.166351,737.130127 348.203522,731.626038 350.517212,720.440491 
	C352.837616,709.222351 348.308105,700.482788 339.455322,693.964966 
	C334.395630,690.239807 328.693024,687.401184 323.452057,683.905212 
	C317.946777,680.232788 311.967773,676.915833 307.413116,672.254211 
	C300.174530,664.845581 303.415588,653.661194 313.067871,651.563599 
	C316.814301,650.749390 321.084137,651.007874 324.851074,651.897522 
	C333.078003,653.840759 334.750458,660.733643 335.306915,668.159668 
	C337.081787,668.159668 338.572784,668.222168 340.057068,668.148926 
	C346.753876,667.818726 350.261810,663.523254 347.478149,657.495178 
	C345.771271,653.799011 342.096954,650.088318 338.389526,648.415527 
	C328.046661,643.748657 317.048187,643.900146 306.150177,646.857422 
	C288.532623,651.637939 282.330750,670.406982 294.591461,683.977051 
	C299.913666,689.867615 307.395264,693.835754 314.000916,698.529419 
	C319.673950,702.560425 325.924347,705.889404 331.138245,710.426514 
	C336.954773,715.487976 336.745056,725.796265 331.612732,730.722839 
	C321.897675,740.048645 302.706146,734.779602 299.395050,721.783447 
	C298.715088,719.114563 298.782288,716.255188 298.508331,713.516174 
	C288.277313,711.776611 283.154175,717.336975 286.199554,726.870789 
	C286.740875,728.565369 287.925079,730.054504 289.242096,732.222473 
M782.427185,671.004639 
	C770.772949,668.637512 759.227783,668.230835 748.576416,674.517090 
	C741.924622,678.442932 740.265015,686.337952 744.254456,692.193481 
	C748.033569,697.740295 756.744934,698.909973 762.801819,694.683838 
	C758.726624,690.088989 757.435974,684.412048 759.700745,680.270081 
	C762.004883,676.056213 766.015442,675.041931 770.361084,675.327759 
	C776.062805,675.702881 779.680786,678.934998 781.024292,685.433167 
	C781.975464,690.033997 782.034912,694.819153 782.438049,698.963379 
	C781.454834,699.681641 781.328735,699.852478 781.191162,699.862183 
	C779.697693,699.968445 778.198914,700.009705 776.708252,700.143372 
	C764.932739,701.199158 753.637207,703.691589 744.640625,712.071594 
	C739.271912,717.072388 737.959290,723.418884 739.921387,730.365295 
	C741.655701,736.505249 746.335327,739.657532 752.230896,740.662964 
	C759.546326,741.910400 766.627136,740.583435 772.447937,735.777771 
	C776.320007,732.581055 779.560669,728.619629 783.114319,724.969177 
	C783.776245,727.529114 784.229980,730.336853 785.225586,732.937134 
	C788.231934,740.789001 798.250122,743.666687 805.162964,738.805847 
	C809.227478,735.947937 809.883606,732.229858 807.103516,727.810303 
	C801.148621,729.952454 799.001709,728.626343 798.905396,722.386108 
	C798.774353,713.895508 799.099548,705.393555 798.809814,696.910828 
	C798.421204,685.531555 795.669922,675.365417 782.427185,671.004639 
M584.319885,740.485107 
	C598.659119,742.986145 608.351990,736.047363 616.056213,723.883606 
	C616.579468,726.625244 616.814636,728.425171 617.273376,730.166199 
	C619.718811,739.446289 628.202087,743.673767 636.496094,739.792175 
	C641.506287,737.447388 642.940918,733.231567 640.518066,727.973267 
	C633.596436,729.862000 631.931458,728.621643 631.880920,721.334900 
	C631.824280,713.176697 632.074829,705.011047 631.809692,696.861084 
	C631.528625,688.220398 630.121277,679.737976 622.411255,674.263489 
	C612.632446,667.320068 590.178955,667.979187 580.513733,675.161194 
	C574.706421,679.476440 573.445374,687.379150 577.700806,692.789673 
	C581.765686,697.957886 590.525879,698.768799 595.935669,694.434692 
	C591.340881,690.841492 590.699646,685.961731 592.425354,680.961975 
	C593.989563,676.429810 598.213013,675.251160 602.604675,675.293274 
	C608.042603,675.345459 612.285828,678.238953 613.589111,683.730530 
	C614.815186,688.896667 614.956848,694.320190 615.597168,699.815186 
	C612.768494,699.965698 611.115112,699.996216 609.473267,700.150208 
	C597.880127,701.237671 586.876282,703.854736 577.788025,711.835388 
	C569.350586,719.244629 569.581909,736.707825 584.319885,740.485107 
M703.097107,735.067078 
	C704.843445,741.364075 713.156799,742.884949 719.482056,738.701782 
	C720.283081,738.171936 720.774292,736.517212 720.702942,735.429932 
	C720.193359,727.664368 719.345764,719.919617 718.908020,712.151184 
	C718.440491,703.853333 718.819031,695.478088 717.880432,687.244690 
	C716.934509,678.946594 712.633362,672.588135 703.932373,670.288879 
	C692.774963,667.340637 683.215942,671.101868 676.812195,680.897583 
	C676.316956,681.655151 675.714294,682.342468 675.020264,683.246521 
	C670.166077,670.835022 664.461182,666.962646 656.576172,670.410950 
	C651.704407,672.541382 650.398438,677.397827 653.251831,682.772705 
	C658.359131,680.823792 659.952393,681.652527 660.067322,687.149536 
	C660.298767,698.219177 660.172607,709.295959 660.232300,720.369568 
	C660.254639,724.509521 660.277161,728.654602 660.495117,732.786987 
	C660.699341,736.658630 662.635071,739.994385 666.499084,740.302063 
	C670.054260,740.585083 673.764832,739.315613 677.339294,738.450317 
	C677.788025,738.341736 678.068604,736.514771 678.013367,735.506653 
	C677.441528,725.070740 676.365417,714.642517 676.289001,704.205872 
	C676.231628,696.378113 677.605103,688.602417 682.819824,682.142700 
	C685.672302,678.609070 689.287842,677.057007 693.801453,677.721008 
	C698.255920,678.376282 700.483276,681.523926 701.271301,685.439697 
	C702.184387,689.977112 702.729858,694.650879 702.825500,699.278076 
	C703.066528,710.934998 702.965088,722.598938 703.097107,735.067078 
M430.871368,717.359985 
	C430.936066,709.601562 432.023010,701.684570 430.849030,694.118347 
	C428.525208,679.141235 417.832581,670.786011 401.425507,669.515686 
	C386.560120,668.364685 374.069458,675.499023 369.851959,689.293762 
	C367.635742,696.542664 367.218567,704.667419 367.621674,712.310547 
	C368.148346,722.295227 372.526398,730.973267 381.475952,736.443359 
	C400.351837,747.980591 424.009033,739.129150 430.871368,717.359985 
M642.728577,511.078644 
	C649.330322,480.431580 627.667419,454.547607 596.856995,456.949921 
	C580.653259,458.213318 568.769165,467.030975 561.975037,481.705872 
	C555.358765,495.996490 556.074219,510.191406 565.517822,523.277222 
	C568.425598,527.306396 571.830139,531.002502 575.225830,534.647400 
	C578.821594,538.507263 580.610352,542.862183 580.418945,548.171448 
	C580.239075,553.161438 580.262573,558.167297 580.426392,563.158630 
	C580.606812,568.655701 583.412048,571.603455 588.655273,572.969971 
	C590.258972,573.387878 591.949402,574.640137 592.953186,575.990967 
	C597.248169,581.770508 604.770264,581.751160 609.001831,575.961121 
	C609.993958,574.603638 611.733154,573.393921 613.352661,572.968262 
	C618.076416,571.726562 621.086060,569.048889 621.532532,564.141357 
	C621.893433,560.174683 622.328186,556.096069 621.803467,552.191711 
	C620.624939,543.422852 624.353760,537.156189 629.955078,530.807068 
	C634.911682,525.188660 638.323364,518.207397 642.728577,511.078644 
M824.788147,697.629395 
	C828.980469,705.370361 836.813904,708.229614 843.992920,711.977661 
	C848.545654,714.354492 853.502502,716.252258 857.427185,719.419250 
	C859.551819,721.133789 860.989258,725.179688 860.687805,727.951111 
	C860.448303,730.152954 857.458801,732.932007 855.066833,733.877319 
	C842.150940,738.982239 832.761658,732.157166 831.844543,717.407837 
	C824.386597,714.787231 817.870605,721.321167 821.192200,729.596069 
	C822.528870,732.926208 825.913574,736.406311 829.217529,737.799866 
	C841.067993,742.798096 853.431091,742.623901 865.098022,737.355286 
	C878.574646,731.269470 880.664795,713.489990 867.642395,705.640137 
	C862.824646,702.736023 857.617249,700.486023 852.709656,697.721069 
	C848.387878,695.286255 843.844482,693.009460 840.109741,689.828430 
	C835.544495,685.940063 836.149536,679.854980 840.650574,677.083862 
	C849.603760,671.571899 860.307312,676.981689 861.137878,687.431763 
	C861.199402,688.205444 861.344971,688.972473 861.440491,689.662964 
	C870.462341,690.535339 874.858765,686.943542 872.743408,680.099792 
	C871.916809,677.425415 869.370300,674.577026 866.848694,673.258972 
	C857.748108,668.502441 847.935303,668.509216 838.177368,670.880676 
	C824.563904,674.189087 819.676331,683.679688 824.788147,697.629395 
M912.432556,689.532959 
	C912.367676,686.040588 912.190918,682.545776 912.268127,679.056580 
	C912.351990,675.268555 911.558105,671.375977 907.682983,670.615173 
	C904.261169,669.943359 900.379761,670.956482 896.865112,671.861633 
	C895.952332,672.096619 895.088440,674.742737 895.171204,676.227295 
	C895.484802,681.847961 896.564331,687.438477 896.685059,693.054749 
	C896.964111,706.030518 896.796387,719.015137 896.919189,731.995178 
	C896.978455,738.260559 900.627563,741.646301 906.825073,740.853210 
	C909.595337,740.498718 912.223755,739.036194 914.916504,738.076477 
	C914.387634,737.790588 913.858826,737.504761 913.329956,737.218933 
	C912.992554,721.653992 912.655151,706.088989 912.432556,689.532959 
M913.079956,649.291870 
	C911.688416,644.238342 908.154541,641.883423 903.140808,642.119263 
	C898.918701,642.317871 896.091003,644.851440 894.950073,648.933899 
	C893.878418,652.768127 894.513184,656.767761 897.989197,658.614136 
	C900.724182,660.066772 904.676880,660.675110 907.639832,659.913086 
	C912.164368,658.749451 913.707214,654.678955 913.079956,649.291870 
z"/>
<path fill="#F1C463" opacity="1.000000" stroke="none" 
	d="
M266.000305,563.413452 
	C347.793610,563.413452 429.086914,563.413452 510.704895,563.413452 
	C510.704895,568.557922 510.704895,573.282349 510.704895,578.299194 
	C420.882080,578.299194 331.145233,578.299194 241.189011,578.299194 
	C241.189011,573.413452 241.189011,568.796082 241.189011,563.413391 
	C249.312302,563.413391 257.406281,563.413391 266.000305,563.413452 
z"/>
<path fill="#F1C463" opacity="1.000000" stroke="none" 
	d="
M871.000244,563.413452 
	C901.133972,563.413452 930.767578,563.413452 960.714661,563.413452 
	C960.714661,568.571228 960.714661,573.295593 960.714661,578.301575 
	C870.862488,578.301575 781.125610,578.301575 691.179321,578.301575 
	C691.179321,573.397278 691.179321,568.776184 691.179321,563.413391 
	C750.996643,563.413391 810.748413,563.413391 871.000244,563.413452 
z"/>
<path fill="#F8CA63" opacity="1.000000" stroke="none" 
	d="
M534.786011,686.873413 
	C533.619629,682.335266 532.463318,678.140808 527.271118,677.651855 
	C522.147217,677.169495 518.122925,679.921997 516.517029,684.256836 
	C514.073242,690.853149 511.689819,697.847229 511.374023,704.767944 
	C510.907898,714.983765 512.287354,725.283081 512.855835,735.548218 
	C512.899048,736.327759 512.942200,737.715271 512.649902,737.812622 
	C509.296387,738.929199 505.886597,740.578186 502.474091,740.619446 
	C499.045013,740.660828 496.115204,738.330261 495.830048,734.386108 
	C495.506531,729.911621 495.531067,725.410461 495.451141,720.920044 
	C495.261658,710.270691 495.459045,699.599060 494.814728,688.977966 
	C494.287201,680.281921 489.408539,675.973816 482.990845,678.138123 
	C480.292725,679.048035 477.056732,681.488647 476.154266,683.987732 
	C473.822205,690.445679 471.510651,697.285217 471.283203,704.042725 
	C470.927856,714.600830 472.328888,725.215454 472.886841,735.811279 
	C472.937897,736.781189 472.419312,738.561401 471.918762,738.655579 
	C468.155914,739.363831 464.198639,740.579895 460.561096,740.003357 
	C456.477600,739.356201 455.200623,735.378479 455.164490,731.450806 
	C455.089508,723.290466 455.136169,715.128906 455.132812,706.967896 
	C455.130310,700.805481 455.229645,694.640869 455.097961,688.481262 
	C454.954163,681.755188 452.883728,680.450073 446.954041,683.078613 
	C444.365204,677.068359 446.189117,672.014160 451.607300,670.184387 
	C460.258026,667.262817 465.959595,671.679321 469.403168,684.568848 
	C473.749298,675.530701 479.890900,669.535522 490.064575,669.467896 
	C500.135651,669.400940 506.762848,674.101685 509.557617,685.000061 
	C511.049713,682.512024 511.968811,680.877625 512.983093,679.304504 
	C520.764771,667.234497 540.010620,665.533203 546.799194,677.114258 
	C550.122803,682.784241 550.945190,690.286499 551.568298,697.081665 
	C552.366638,705.787354 551.718506,714.618347 551.910522,723.390564 
	C551.986450,726.856323 552.144592,730.467590 553.172607,733.726257 
	C554.333374,737.405823 553.022583,738.865112 549.885681,740.045166 
	C541.792236,743.089783 536.017639,739.334839 535.813965,730.704712 
	C535.472412,716.237244 535.173462,701.768677 534.786011,686.873413 
z"/>
<path fill="#F9CA63" opacity="1.000000" stroke="none" 
	d="
M289.027252,731.930542 
	C287.925079,730.054504 286.740875,728.565369 286.199554,726.870789 
	C283.154175,717.336975 288.277313,711.776611 298.508331,713.516174 
	C298.782288,716.255188 298.715088,719.114563 299.395050,721.783447 
	C302.706146,734.779602 321.897675,740.048645 331.612732,730.722839 
	C336.745056,725.796265 336.954773,715.487976 331.138245,710.426514 
	C325.924347,705.889404 319.673950,702.560425 314.000916,698.529419 
	C307.395264,693.835754 299.913666,689.867615 294.591461,683.977051 
	C282.330750,670.406982 288.532623,651.637939 306.150177,646.857422 
	C317.048187,643.900146 328.046661,643.748657 338.389526,648.415527 
	C342.096954,650.088318 345.771271,653.799011 347.478149,657.495178 
	C350.261810,663.523254 346.753876,667.818726 340.057068,668.148926 
	C338.572784,668.222168 337.081787,668.159668 335.306915,668.159668 
	C334.750458,660.733643 333.078003,653.840759 324.851074,651.897522 
	C321.084137,651.007874 316.814301,650.749390 313.067871,651.563599 
	C303.415588,653.661194 300.174530,664.845581 307.413116,672.254211 
	C311.967773,676.915833 317.946777,680.232788 323.452057,683.905212 
	C328.693024,687.401184 334.395630,690.239807 339.455322,693.964966 
	C348.308105,700.482788 352.837616,709.222351 350.517212,720.440491 
	C348.203522,731.626038 340.166351,737.130127 329.794373,739.552979 
	C319.417572,741.976929 308.909637,741.947815 298.798492,738.313110 
	C295.331299,737.066650 292.411835,734.296448 289.027252,731.930542 
z"/>
<path fill="#F8CA63" opacity="1.000000" stroke="none" 
	d="
M782.803833,671.128418 
	C795.669922,675.365417 798.421204,685.531555 798.809814,696.910828 
	C799.099548,705.393555 798.774353,713.895508 798.905396,722.386108 
	C799.001709,728.626343 801.148621,729.952454 807.103516,727.810303 
	C809.883606,732.229858 809.227478,735.947937 805.162964,738.805847 
	C798.250122,743.666687 788.231934,740.789001 785.225586,732.937134 
	C784.229980,730.336853 783.776245,727.529114 783.114319,724.969177 
	C779.560669,728.619629 776.320007,732.581055 772.447937,735.777771 
	C766.627136,740.583435 759.546326,741.910400 752.230896,740.662964 
	C746.335327,739.657532 741.655701,736.505249 739.921387,730.365295 
	C737.959290,723.418884 739.271912,717.072388 744.640625,712.071594 
	C753.637207,703.691589 764.932739,701.199158 776.708252,700.143372 
	C778.198914,700.009705 779.697693,699.968445 781.191162,699.862183 
	C781.328735,699.852478 781.454834,699.681641 782.438049,698.963379 
	C782.034912,694.819153 781.975464,690.033997 781.024292,685.433167 
	C779.680786,678.934998 776.062805,675.702881 770.361084,675.327759 
	C766.015442,675.041931 762.004883,676.056213 759.700745,680.270081 
	C757.435974,684.412048 758.726624,690.088989 762.801819,694.683838 
	C756.744934,698.909973 748.033569,697.740295 744.254456,692.193481 
	C740.265015,686.337952 741.924622,678.442932 748.576416,674.517090 
	C759.227783,668.230835 770.772949,668.637512 782.803833,671.128418 
M782.857300,707.380920 
	C782.778748,707.070129 782.782593,706.545959 782.609802,706.479187 
	C775.418945,703.702087 761.171387,709.378540 757.974121,716.261108 
	C755.936279,720.647888 756.620483,726.872070 759.411926,729.340088 
	C762.369812,731.955261 766.787476,731.524353 771.732422,727.999268 
	C778.515198,723.163879 781.733582,716.290161 782.857300,707.380920 
z"/>
<path fill="#F8CA63" opacity="1.000000" stroke="none" 
	d="
M583.918579,740.369019 
	C569.581909,736.707825 569.350586,719.244629 577.788025,711.835388 
	C586.876282,703.854736 597.880127,701.237671 609.473267,700.150208 
	C611.115112,699.996216 612.768494,699.965698 615.597168,699.815186 
	C614.956848,694.320190 614.815186,688.896667 613.589111,683.730530 
	C612.285828,678.238953 608.042603,675.345459 602.604675,675.293274 
	C598.213013,675.251160 593.989563,676.429810 592.425354,680.961975 
	C590.699646,685.961731 591.340881,690.841492 595.935669,694.434692 
	C590.525879,698.768799 581.765686,697.957886 577.700806,692.789673 
	C573.445374,687.379150 574.706421,679.476440 580.513733,675.161194 
	C590.178955,667.979187 612.632446,667.320068 622.411255,674.263489 
	C630.121277,679.737976 631.528625,688.220398 631.809692,696.861084 
	C632.074829,705.011047 631.824280,713.176697 631.880920,721.334900 
	C631.931458,728.621643 633.596436,729.862000 640.518066,727.973267 
	C642.940918,733.231567 641.506287,737.447388 636.496094,739.792175 
	C628.202087,743.673767 619.718811,739.446289 617.273376,730.166199 
	C616.814636,728.425171 616.579468,726.625244 616.056213,723.883606 
	C608.351990,736.047363 598.659119,742.986145 583.918579,740.369019 
M597.998352,709.223267 
	C592.966187,712.199890 589.629517,716.173584 589.842346,722.438965 
	C590.094299,729.856567 594.774353,732.831238 601.639587,729.823242 
	C609.765442,726.263123 615.805298,716.116577 615.538696,705.029602 
	C609.760193,706.371643 604.235535,707.654663 597.998352,709.223267 
z"/>
<path fill="#F9CA63" opacity="1.000000" stroke="none" 
	d="
M703.049011,734.663574 
	C702.965088,722.598938 703.066528,710.934998 702.825500,699.278076 
	C702.729858,694.650879 702.184387,689.977112 701.271301,685.439697 
	C700.483276,681.523926 698.255920,678.376282 693.801453,677.721008 
	C689.287842,677.057007 685.672302,678.609070 682.819824,682.142700 
	C677.605103,688.602417 676.231628,696.378113 676.289001,704.205872 
	C676.365417,714.642517 677.441528,725.070740 678.013367,735.506653 
	C678.068604,736.514771 677.788025,738.341736 677.339294,738.450317 
	C673.764832,739.315613 670.054260,740.585083 666.499084,740.302063 
	C662.635071,739.994385 660.699341,736.658630 660.495117,732.786987 
	C660.277161,728.654602 660.254639,724.509521 660.232300,720.369568 
	C660.172607,709.295959 660.298767,698.219177 660.067322,687.149536 
	C659.952393,681.652527 658.359131,680.823792 653.251831,682.772705 
	C650.398438,677.397827 651.704407,672.541382 656.576172,670.410950 
	C664.461182,666.962646 670.166077,670.835022 675.020264,683.246521 
	C675.714294,682.342468 676.316956,681.655151 676.812195,680.897583 
	C683.215942,671.101868 692.774963,667.340637 703.932373,670.288879 
	C712.633362,672.588135 716.934509,678.946594 717.880432,687.244690 
	C718.819031,695.478088 718.440491,703.853333 718.908020,712.151184 
	C719.345764,719.919617 720.193359,727.664368 720.702942,735.429932 
	C720.774292,736.517212 720.283081,738.171936 719.482056,738.701782 
	C713.156799,742.884949 704.843445,741.364075 703.049011,734.663574 
z"/>
<path fill="#F9CA63" opacity="1.000000" stroke="none" 
	d="
M430.769714,717.756287 
	C424.009033,739.129150 400.351837,747.980591 381.475952,736.443359 
	C372.526398,730.973267 368.148346,722.295227 367.621674,712.310547 
	C367.218567,704.667419 367.635742,696.542664 369.851959,689.293762 
	C374.069458,675.499023 386.560120,668.364685 401.425507,669.515686 
	C417.832581,670.786011 428.525208,679.141235 430.849030,694.118347 
	C432.023010,701.684570 430.936066,709.601562 430.769714,717.756287 
M384.102173,702.689636 
	C385.185211,710.540039 385.674988,718.535828 387.551880,726.191589 
	C388.888855,731.645020 393.252655,735.029358 399.409332,735.143066 
	C405.603271,735.257568 409.698029,731.908081 411.550842,726.532104 
	C416.409943,712.433594 416.432587,698.107422 411.583008,683.989990 
	C409.791290,678.774048 405.787201,675.354248 399.943115,675.313354 
	C394.260437,675.273499 389.677979,677.943481 387.993134,683.385620 
	C386.149994,689.339233 385.361328,695.619263 384.102173,702.689636 
z"/>
<path fill="#E9BF64" opacity="1.000000" stroke="none" 
	d="
M642.572815,511.453186 
	C638.323364,518.207397 634.911682,525.188660 629.955078,530.807068 
	C624.353760,537.156189 620.624939,543.422852 621.803467,552.191711 
	C622.328186,556.096069 621.893433,560.174683 621.532532,564.141357 
	C621.086060,569.048889 618.076416,571.726562 613.352661,572.968262 
	C611.733154,573.393921 609.993958,574.603638 609.001831,575.961121 
	C604.770264,581.751160 597.248169,581.770508 592.953186,575.990967 
	C591.949402,574.640137 590.258972,573.387878 588.655273,572.969971 
	C583.412048,571.603455 580.606812,568.655701 580.426392,563.158630 
	C580.262573,558.167297 580.239075,553.161438 580.418945,548.171448 
	C580.610352,542.862183 578.821594,538.507263 575.225830,534.647400 
	C571.830139,531.002502 568.425598,527.306396 565.517822,523.277222 
	C556.074219,510.191406 555.358765,495.996490 561.975037,481.705872 
	C568.769165,467.030975 580.653259,458.213318 596.856995,456.949921 
	C627.667419,454.547607 649.330322,480.431580 642.572815,511.453186 
M563.271301,510.824646 
	C567.703735,517.374512 572.140686,523.921448 576.566833,530.475525 
	C578.870728,533.887024 581.788635,537.053284 583.310547,540.786316 
	C586.031860,547.461609 585.734619,547.638245 593.366211,545.969604 
	C593.366211,534.309570 593.433655,522.522156 593.257385,510.738434 
	C593.240540,509.613922 591.863220,508.326324 590.839111,507.434113 
	C587.561829,504.579132 586.954590,501.254669 589.160522,497.647736 
	C591.264465,494.207458 594.403198,493.556458 598.272583,494.681458 
	C600.032349,495.193115 602.191956,495.097626 603.977173,494.593658 
	C607.679810,493.548401 610.642944,494.371552 612.730286,497.462280 
	C614.981018,500.795044 614.852234,504.578705 611.558533,506.800446 
	C608.567322,508.818115 608.568420,511.205688 608.595154,514.039246 
	C608.631287,517.869446 608.604004,521.700256 608.603943,525.530762 
	C608.603943,532.472595 608.603943,539.414490 608.603943,546.459717 
	C612.090271,546.459717 614.822815,546.459717 617.809265,546.459717 
	C617.628113,539.853455 620.885254,535.165100 625.016174,530.867249 
	C627.204529,528.590454 629.284363,526.205994 631.353333,523.818298 
	C639.467651,514.454163 641.932739,503.511963 639.368286,491.638245 
	C634.624878,469.675262 613.101562,456.214386 591.790649,461.507202 
	C570.165039,466.878174 557.561096,488.147705 563.271301,510.824646 
M602.767395,501.308075 
	C601.573181,501.257660 599.582153,501.608154 599.320618,501.088409 
	C598.091675,498.646271 596.521606,497.187469 593.866760,498.473694 
	C592.926880,498.929047 591.742615,501.090912 592.026855,501.478394 
	C593.235046,503.125610 594.957458,504.393951 596.478210,505.815491 
	C596.707642,506.029968 596.863708,506.322845 597.469604,507.141174 
	C597.469604,519.807007 597.469604,533.028931 597.469604,546.501465 
	C599.970337,546.501465 602.050171,546.501465 604.598389,546.501465 
	C604.598389,532.991638 604.598389,519.607239 604.598389,506.222839 
	C607.110046,505.039673 608.871582,503.518066 609.941895,501.608917 
	C610.253601,501.052948 608.462891,498.357544 607.858643,498.432739 
	C606.184570,498.641022 604.627869,499.792694 602.767395,501.308075 
M590.195496,558.012695 
	C588.281982,558.012695 586.368469,558.012695 584.454956,558.012695 
	C584.272339,558.664124 584.089722,559.315613 583.907043,559.967041 
	C585.153015,560.551086 586.399719,561.133484 587.644775,561.719421 
	C589.043030,562.377563 590.439697,563.039001 591.837097,563.698975 
	C590.372986,564.340454 588.919006,565.006592 587.440125,565.611938 
	C586.798035,565.874756 586.104797,566.012756 585.205933,566.273865 
	C589.902527,570.597412 613.669800,570.194458 616.619934,565.600525 
	C610.523865,565.600525 604.723022,565.720154 598.934326,565.508240 
	C597.645691,565.461121 596.399719,564.247498 595.134094,563.570984 
	C595.357788,562.969482 595.581482,562.368042 595.805176,561.766602 
	C602.072021,561.766602 608.342773,561.881714 614.602478,561.670471 
	C615.869446,561.627686 617.094910,560.351318 618.339478,559.643616 
	C618.114990,559.099731 617.890503,558.555847 617.665955,558.011963 
	C610.407104,558.011963 603.148193,558.011963 595.889282,558.011963 
	C595.630981,557.490356 595.372620,556.968689 595.114319,556.447083 
	C596.302856,555.665771 597.459778,554.273926 598.685547,554.210327 
	C603.664062,553.951782 608.669861,554.236450 613.651917,554.014587 
	C615.090210,553.950562 616.482788,552.862244 617.896301,552.243469 
	C616.552856,551.697571 615.217102,550.702271 613.864685,550.679077 
	C605.380920,550.534058 596.892212,550.532532 588.408508,550.680298 
	C587.050293,550.703857 585.709229,551.716248 584.360229,552.271606 
	C585.638672,552.881287 586.869446,553.855896 588.204712,554.030151 
	C591.785095,554.497314 591.802856,554.361206 590.195496,558.012695 
M605.532532,573.909546 
	C602.555969,573.533508 599.579407,573.157532 596.602844,572.781555 
	C599.101807,577.168579 601.951477,577.559387 605.532532,573.909546 
z"/>
<path fill="#F8CA63" opacity="1.000000" stroke="none" 
	d="
M824.600769,697.301758 
	C819.676331,683.679688 824.563904,674.189087 838.177368,670.880676 
	C847.935303,668.509216 857.748108,668.502441 866.848694,673.258972 
	C869.370300,674.577026 871.916809,677.425415 872.743408,680.099792 
	C874.858765,686.943542 870.462341,690.535339 861.440491,689.662964 
	C861.344971,688.972473 861.199402,688.205444 861.137878,687.431763 
	C860.307312,676.981689 849.603760,671.571899 840.650574,677.083862 
	C836.149536,679.854980 835.544495,685.940063 840.109741,689.828430 
	C843.844482,693.009460 848.387878,695.286255 852.709656,697.721069 
	C857.617249,700.486023 862.824646,702.736023 867.642395,705.640137 
	C880.664795,713.489990 878.574646,731.269470 865.098022,737.355286 
	C853.431091,742.623901 841.067993,742.798096 829.217529,737.799866 
	C825.913574,736.406311 822.528870,732.926208 821.192200,729.596069 
	C817.870605,721.321167 824.386597,714.787231 831.844543,717.407837 
	C832.761658,732.157166 842.150940,738.982239 855.066833,733.877319 
	C857.458801,732.932007 860.448303,730.152954 860.687805,727.951111 
	C860.989258,725.179688 859.551819,721.133789 857.427185,719.419250 
	C853.502502,716.252258 848.545654,714.354492 843.992920,711.977661 
	C836.813904,708.229614 828.980469,705.370361 824.600769,697.301758 
z"/>
<path fill="#F9CA63" opacity="1.000000" stroke="none" 
	d="
M912.375122,690.028503 
	C912.655151,706.088989 912.992554,721.653992 913.329956,737.218933 
	C913.858826,737.504761 914.387634,737.790588 914.916504,738.076477 
	C912.223755,739.036194 909.595337,740.498718 906.825073,740.853210 
	C900.627563,741.646301 896.978455,738.260559 896.919189,731.995178 
	C896.796387,719.015137 896.964111,706.030518 896.685059,693.054749 
	C896.564331,687.438477 895.484802,681.847961 895.171204,676.227295 
	C895.088440,674.742737 895.952332,672.096619 896.865112,671.861633 
	C900.379761,670.956482 904.261169,669.943359 907.682983,670.615173 
	C911.558105,671.375977 912.351990,675.268555 912.268127,679.056580 
	C912.190918,682.545776 912.367676,686.040588 912.375122,690.028503 
z"/>
<path fill="#F9CA63" opacity="1.000000" stroke="none" 
	d="
M913.119751,649.660767 
	C913.707214,654.678955 912.164368,658.749451 907.639832,659.913086 
	C904.676880,660.675110 900.724182,660.066772 897.989197,658.614136 
	C894.513184,656.767761 893.878418,652.768127 894.950073,648.933899 
	C896.091003,644.851440 898.918701,642.317871 903.140808,642.119263 
	C908.154541,641.883423 911.688416,644.238342 913.119751,649.660767 
z"/>
<path fill="#14346B" opacity="1.000000" stroke="none" 
	d="
M782.831909,707.807739 
	C781.733582,716.290161 778.515198,723.163879 771.732422,727.999268 
	C766.787476,731.524353 762.369812,731.955261 759.411926,729.340088 
	C756.620483,726.872070 755.936279,720.647888 757.974121,716.261108 
	C761.171387,709.378540 775.418945,703.702087 782.609802,706.479187 
	C782.782593,706.545959 782.778748,707.070129 782.831909,707.807739 
z"/>
<path fill="#14346B" opacity="1.000000" stroke="none" 
	d="
M598.354614,709.080444 
	C604.235535,707.654663 609.760193,706.371643 615.538696,705.029602 
	C615.805298,716.116577 609.765442,726.263123 601.639587,729.823242 
	C594.774353,732.831238 590.094299,729.856567 589.842346,722.438965 
	C589.629517,716.173584 592.966187,712.199890 598.354614,709.080444 
z"/>
<path fill="#12326B" opacity="1.000000" stroke="none" 
	d="
M384.107605,702.223328 
	C385.361328,695.619263 386.149994,689.339233 387.993134,683.385620 
	C389.677979,677.943481 394.260437,675.273499 399.943115,675.313354 
	C405.787201,675.354248 409.791290,678.774048 411.583008,683.989990 
	C416.432587,698.107422 416.409943,712.433594 411.550842,726.532104 
	C409.698029,731.908081 405.603271,735.257568 399.409332,735.143066 
	C393.252655,735.029358 388.888855,731.645020 387.551880,726.191589 
	C385.674988,718.535828 385.185211,710.540039 384.107605,702.223328 
z"/>
<path fill="#14346B" opacity="1.000000" stroke="none" 
	d="
M563.154480,510.426697 
	C557.561096,488.147705 570.165039,466.878174 591.790649,461.507202 
	C613.101562,456.214386 634.624878,469.675262 639.368286,491.638245 
	C641.932739,503.511963 639.467651,514.454163 631.353333,523.818298 
	C629.284363,526.205994 627.204529,528.590454 625.016174,530.867249 
	C620.885254,535.165100 617.628113,539.853455 617.809265,546.459717 
	C614.822815,546.459717 612.090271,546.459717 608.603943,546.459717 
	C608.603943,539.414490 608.603943,532.472595 608.603943,525.530762 
	C608.604004,521.700256 608.631287,517.869446 608.595154,514.039246 
	C608.568420,511.205688 608.567322,508.818115 611.558533,506.800446 
	C614.852234,504.578705 614.981018,500.795044 612.730286,497.462280 
	C610.642944,494.371552 607.679810,493.548401 603.977173,494.593658 
	C602.191956,495.097626 600.032349,495.193115 598.272583,494.681458 
	C594.403198,493.556458 591.264465,494.207458 589.160522,497.647736 
	C586.954590,501.254669 587.561829,504.579132 590.839111,507.434113 
	C591.863220,508.326324 593.240540,509.613922 593.257385,510.738434 
	C593.433655,522.522156 593.366211,534.309570 593.366211,545.969604 
	C585.734619,547.638245 586.031860,547.461609 583.310547,540.786316 
	C581.788635,537.053284 578.870728,533.887024 576.566833,530.475525 
	C572.140686,523.921448 567.703735,517.374512 563.154480,510.426697 
z"/>
<path fill="#1F3B6A" opacity="1.000000" stroke="none" 
	d="
M602.896118,500.939819 
	C604.627869,499.792694 606.184570,498.641022 607.858643,498.432739 
	C608.462891,498.357544 610.253601,501.052948 609.941895,501.608917 
	C608.871582,503.518066 607.110046,505.039673 604.598389,506.222839 
	C604.598389,519.607239 604.598389,532.991638 604.598389,546.501465 
	C602.050171,546.501465 599.970337,546.501465 597.469604,546.501465 
	C597.469604,533.028931 597.469604,519.807007 597.469604,507.141174 
	C596.863708,506.322845 596.707642,506.029968 596.478210,505.815491 
	C594.957458,504.393951 593.235046,503.125610 592.026855,501.478394 
	C591.742615,501.090912 592.926880,498.929047 593.866760,498.473694 
	C596.521606,497.187469 598.091675,498.646271 599.320618,501.088409 
	C599.582153,501.608154 601.573181,501.257660 602.896118,500.939819 
z"/>
<path fill="#14346B" opacity="1.000000" stroke="none" 
	d="
M590.614319,557.942749 
	C591.802856,554.361206 591.785095,554.497314 588.204712,554.030151 
	C586.869446,553.855896 585.638672,552.881287 584.360229,552.271606 
	C585.709229,551.716248 587.050293,550.703857 588.408508,550.680298 
	C596.892212,550.532532 605.380920,550.534058 613.864685,550.679077 
	C615.217102,550.702271 616.552856,551.697571 617.896301,552.243530 
	C616.482788,552.862244 615.090210,553.950562 613.651917,554.014587 
	C608.669861,554.236450 603.664062,553.951782 598.685547,554.210327 
	C597.459778,554.273926 596.302856,555.665771 595.114319,556.447083 
	C595.372620,556.968689 595.630981,557.490356 595.889282,558.011963 
	C603.148193,558.011963 610.407104,558.011963 617.665955,558.011963 
	C617.890503,558.555847 618.114990,559.099731 618.339478,559.643616 
	C617.094910,560.351318 615.869446,561.627686 614.602478,561.670471 
	C608.342773,561.881714 602.072021,561.766602 595.805176,561.766602 
	C595.581482,562.368042 595.357788,562.969482 595.134094,563.570984 
	C596.399719,564.247498 597.645691,565.461121 598.934326,565.508240 
	C604.723022,565.720154 610.523865,565.600525 616.619934,565.600525 
	C613.669800,570.194458 589.902527,570.597412 585.205933,566.273865 
	C586.104797,566.012756 586.798035,565.874756 587.440125,565.611938 
	C588.919006,565.006592 590.372986,564.340454 591.837097,563.698975 
	C590.439697,563.039001 589.043030,562.377563 587.644775,561.719421 
	C586.399719,561.133484 585.153015,560.551086 583.907043,559.967041 
	C584.089722,559.315613 584.272339,558.664124 584.454956,558.012695 
	C586.368469,558.012695 588.281982,558.012695 590.614319,557.942749 
z"/>
<path fill="#1F3B6A" opacity="1.000000" stroke="none" 
	d="
M605.325684,574.218506 
	C601.951477,577.559387 599.101807,577.168579 596.602844,572.781555 
	C599.579407,573.157532 602.555969,573.533508 605.325684,574.218506 
z"/>
</svg>